<?xml version="1.0" encoding="utf-8"?>
<svg version="1.1" xmlns="http://www.w3.org/2000/svg" viewBox="0 0 760 200">
	<style type="text/css">*{fill:#7289DA;}</style>
	
	<ellipse cx="105.9" cy="94.2" rx="10.2" ry="11"/>
	<path d="M69.4,83.2c-5.7,0-10.2,4.9-10.2,11s4.6,11,10.2,11c5.7,0,10.2-4.9,10.2-11C79.7,88.1,75.1,83.2,69.4,83.2z"/>
	<path d="M154.5,0h-134C9.2,0,0,9.2,0,20.5v134C0,165.8,9.2,175,20.5,175h113.4l-5.3-18.3l12.8,11.8l12.1,11.1l21.6,18.7
	V20.5C175,9.2,165.8,0,154.5,0z M115.9,129.5c0,0-3.6-4.3-6.6-8c13.1-3.7,18.1-11.8,18.1-11.8c-4.1,2.7-8,4.6-11.5,5.9
	c-5,2.1-9.8,3.4-14.5,4.3c-9.6,1.8-18.4,1.3-25.9-0.1c-5.7-1.1-10.6-2.6-14.7-4.3c-2.3-0.9-4.8-2-7.3-3.4c-0.3-0.2-0.6-0.3-0.9-0.5
	c-0.2-0.1-0.3-0.2-0.4-0.2c-1.8-1-2.8-1.7-2.8-1.7s4.8,7.9,17.5,11.7c-3,3.8-6.7,8.2-6.7,8.2c-22.1-0.7-30.5-15.1-30.5-15.1
	c0-31.9,14.4-57.8,14.4-57.8c14.4-10.7,28-10.4,28-10.4l1,1.2c-18,5.1-26.2,13-26.2,13s2.2-1.2,5.9-2.8C63.5,53,72,51.8,75.5,51.4
	c0.6-0.1,1.1-0.2,1.7-0.2c6.1-0.8,13-1,20.2-0.2c9.5,1.1,19.7,3.9,30.1,9.5c0,0-7.9-7.5-24.9-12.6l1.4-1.6c0,0,13.7-0.3,28,10.4
	c0,0,14.4,25.9,14.4,57.8C146.4,114.4,138,128.8,115.9,129.5L115.9,129.5z"/>
	<path d="M266.9,42.8h-33.2v37.3l22.1,19.9V63.8h11.8c7.5,0,11.2,3.6,11.2,9.4v27.7c0,5.8-3.5,9.7-11.2,9.7h-34v21.1
	h33.2c17.8,0.1,34.5-8.8,34.5-29.2V72.7C301.4,51.9,284.7,42.8,266.9,42.8z"/>
	<path d="M440.9,102.5V71.9c0-11,19.8-13.5,25.8-2.5L485,62c-7.2-15.8-20.3-20.4-31.2-20.4c-17.8,0-35.4,10.3-35.4,30.3
	v30.6c0,20.2,17.6,30.3,35,30.3c11.2,0,24.6-5.5,32-19.9l-19.6-9C461,116.2,440.9,113.2,440.9,102.5L440.9,102.5z"/>
	<path d="M380.4,76.1c-6.9-1.5-11.5-4-11.8-8.3c0.4-10.3,16.3-10.7,25.6-0.8l14.7-11.3c-9.2-11.2-19.6-14.2-30.3-14.2
	c-16.3,0-32.1,9.2-32.1,26.6c0,16.9,13,26,27.3,28.2c7.3,1,15.4,3.9,15.2,8.9c-0.6,9.5-20.2,9-29.1-1.8l-14.2,13.3
	c8.3,10.7,19.6,16.1,30.2,16.1c16.3,0,34.4-9.4,35.1-26.6C412,84.5,396.2,79,380.4,76.1L380.4,76.1z"/>
	<rect x="313.4" y="42.8" width="22.4" height="88.8"/>
	<path d="M691.1,42.8h-33.2v37.3L680,100V63.8h11.8c7.5,0,11.2,3.6,11.2,9.4v27.7c0,5.8-3.5,9.7-11.2,9.7h-34v21.1h33.3
	c17.8,0.1,34.5-8.8,34.5-29.2V72.7C725.6,51.9,708.9,42.8,691.1,42.8z"/>
	<path d="M528.2,41.6c-18.4,0-36.7,10-36.7,30.5v30.3c0,20.3,18.4,30.5,36.9,30.5c18.4,0,36.7-10.2,36.7-30.5V72.1
	C565.1,51.7,546.6,41.6,528.2,41.6z M542.6,102.4c0,6.4-7.2,9.7-14.3,9.7c-7.2,0-14.4-3.1-14.4-9.7V72.1c0-6.5,7-10,14-10
	c7.3,0,14.7,3.1,14.7,10V102.4z"/>
	<path d="M645.5,72.1c-0.5-20.8-14.7-29.2-33-29.2H577v88.8h22.7v-28.2h4l20.6,28.2h28l-24.2-30.5
	C638.8,97.8,645.5,88.5,645.5,72.1z M612.9,84.1h-13.2V63.8h13.2C627,63.8,627,84.1,612.9,84.1z"/>
</svg>
